<svg xmlns="http://www.w3.org/2000/svg" viewBox="0 0 15100 15300" width="15100" height="15300">
  <path fill="#e5e5e5" d="M600 11000 L1300 12200 L1300 10400 Z M6500 6600 L6500 7700 L6800 8000 Z M13100 700 L12400 1300 L14300 2000 Z M4600 12600 L5300 12300 L2600 8900 Z M5300 12300 L6000 11800 L2900 8600 Z M2600 8900 L5300 12300 L2900 8600 Z M6000 11800 L6600 11100 L4100 8000 Z M6600 11100 L6800 10200 L4100 8000 Z M6000 11800 L4100 8000 L3400 8300 Z M6800 10200 L6700 9300 L4900 7900 Z M6700 9300 L6400 8600 L4900 7900 Z M6400 8600 L5700 8100 L4900 7900 Z M4900 7900 L4100 8000 L6800 10200 Z M3400 8300 L2900 8600 L6000 11800 Z M2600 8900 L1300 10400 L3300 12800 Z M3900 12700 L4600 12600 L2600 8900 Z M2500 12700 L3300 12800 L1300 10400 Z M3300 12800 L3900 12700 L2600 8900 Z M0 11400 L1300 12200 L600 11000 Z M1300 12200 L2500 12700 L1300 10400 Z M7400 9000 L8200 8400 L7300 8700 Z M8200 8400 L6500 6600 L6800 8000 Z M7300 8700 L8200 8400 L7100 8300 Z M6500 6600 L5800 7400 L6200 7500 Z M6500 6600 L6200 7500 L6500 7700 Z M7100 8300 L8200 8400 L6800 8000 Z M10700 2600 L9900 3300 L12400 4400 Z M9900 3300 L8300 4800 L11700 5100 Z M8300 4800 L6500 6600 L10100 6700 Z M6500 6600 L8200 8400 L10100 6700 Z M10100 6700 L11700 5100 L8300 4800 Z M11700 5100 L12400 4400 L9900 3300 Z M12400 4400 L13100 3600 L10700 2600 Z M10700 2600 L13100 3600 L11500 1900 Z M13100 3600 L13800 2800 L11500 1900 Z M13800 2800 L14300 2000 L12400 1300 Z M11500 1900 L13800 2800 L12400 1300 Z M14300 2000 L14700 1500 L13100 700 Z M14700 1500 L14900 1100 L13600 400 Z M13600 400 L14900 1100 L14100 200 Z M14900 1100 L15100 600 L14100 200 Z M15100 600 L15100 300 L14600 0 Z M14100 200 L15100 600 L14600 0 Z M15100 300 L15000 100 L14900 0 Z M14900 0 L14600 0 L15100 300 Z M13600 400 L13100 700 L14700 1500 Z"/>
  <path fill="#909090" d="M14600 12400 L14800 12400 L14800 12300 Z M2100 13500 L1800 13400 L1400 13700 Z M1800 13400 L1500 13300 L1300 13500 Z M1500 13300 L1400 13200 L1300 13300 Z M1300 13300 L1300 13500 L1500 13300 Z M1300 13500 L1400 13700 L1800 13400 Z M1400 13700 L1700 14100 L2100 13500 Z M1700 14100 L2100 14600 L2100 13500 Z M2100 14600 L2900 15000 L2700 13700 Z M2900 15000 L3900 15300 L3500 13800 Z M3900 15300 L5200 15300 L4300 13700 Z M5200 15300 L6500 15000 L5200 13400 Z M6500 15000 L7800 14500 L6000 12900 Z M4300 13700 L5200 15300 L5200 13400 Z M7800 14500 L9000 13900 L6700 12300 Z M2100 14600 L2700 13700 L2100 13500 Z M3900 15300 L4300 13700 L3500 13800 Z M5200 13400 L6500 15000 L6000 12900 Z M9000 13900 L10200 13300 L8500 11200 Z M3500 13800 L2700 13700 L2900 15000 Z M10200 13300 L11400 12800 L10400 11100 Z M6000 12900 L7800 14500 L6700 12300 Z M11400 12800 L12300 12500 L11500 11100 Z M6700 12300 L9000 13900 L7200 11700 Z M12300 12500 L13100 12400 L12500 11300 Z M8500 11200 L10200 13300 L9400 11100 Z M9400 11100 L10200 13300 L10400 11100 Z M7500 11500 L7200 11700 L7800 11400 Z M7800 11400 L7200 11700 L9000 13900 Z M10400 11100 L11400 12800 L11500 11100 Z M13100 12400 L13700 12400 L13800 11700 Z M9000 13900 L8500 11200 L7800 11400 Z M11500 11100 L12300 12500 L12500 11300 Z M13200 11500 L12500 11300 L13100 12400 Z M13200 11500 L13100 12400 L13800 11700 Z M14300 11900 L13800 11700 L13700 12400 Z M14300 11900 L13700 12400 L14200 12400 Z M14800 12300 L14600 12100 L14600 12400 Z M14600 12100 L14300 11900 L14200 12400 Z M14800 12400 L14900 12400 L14800 12300 Z M14200 12400 L14600 12400 L14600 12100 Z"/>
</svg>
