<svg xmlns="http://www.w3.org/2000/svg" viewBox="0 0 18700 18700" width="18700" height="18700">
  <path fill="#e5e5e5" d="M15200 11800 L18700 9400 L15200 6900 Z M12000 8700 L14400 10000 L14400 8700 Z M12000 8700 L12000 10000 L14400 10000 Z M6900 15200 L9300 18700 L11800 15200 Z M10000 12000 L8700 14400 L10000 14400 Z M10000 12000 L8700 12000 L8700 14400 Z M3500 6900 L0 9300 L3500 11800 Z M6700 10000 L4300 8700 L4300 10000 Z M6700 10000 L6700 8700 L4300 8700 Z M11800 3500 L9400 0 L6900 3500 Z M8700 6700 L10000 4300 L8700 4300 Z M8700 6700 L10000 6700 L10000 4300 Z"/>
</svg>
