<svg xmlns="http://www.w3.org/2000/svg" viewBox="0 0 18700 15300" width="18700" height="15300">
  <path fill="#b3b3b3" d="M6400 7600 L12300 7600 L9300 4700 Z M6400 7600 L9300 10600 L12300 7600 Z"/>
  <path fill="#e5e5e5" d="M10000 14500 L9400 15300 L10100 15300 Z M10800 15200 L10000 14500 L10100 15300 Z M11300 14200 L10800 15200 L11600 15000 Z M12300 14700 L11300 14200 L11600 15000 Z M12600 13700 L12300 14700 L13000 14400 Z M13600 14000 L12600 13700 L13000 14400 Z M14200 13600 L13100 13300 L13600 14000 Z M14200 12500 L14200 13600 L14800 13100 Z M14600 12000 L14800 13100 L15300 12500 Z M15700 11900 L14600 12000 L15300 12500 Z M15400 10900 L15700 11900 L16100 11300 Z M16400 10600 L15400 10900 L16100 11300 Z M15900 9600 L16400 10600 L16700 9900 Z M16000 9200 L16700 9900 L16900 9100 Z M5000 12900 L3900 13100 L4500 13600 Z M5600 13300 L4500 13600 L5100 14000 Z M5700 14400 L5600 13300 L5100 14000 Z M6400 14700 L6100 13700 L5700 14400 Z M7100 15000 L6700 14000 L6400 14700 Z M8000 14400 L7100 15000 L7900 15200 Z M8600 15300 L8000 14400 L7900 15200 Z M9400 14500 L8600 15300 L9400 15300 Z M18700 8400 L16400 4700 L14100 8400 Z M10000 14500 L9400 14500 L9400 15300 Z M10800 15200 L10700 14400 L10000 14500 Z M11300 14200 L10700 14400 L10800 15200 Z M12300 14700 L12000 14000 L11300 14200 Z M12600 13700 L12000 14000 L12300 14700 Z M13600 14000 L13100 13300 L12600 13700 Z M14200 13600 L13700 12900 L13100 13300 Z M14200 12500 L13700 12900 L14200 13600 Z M14600 12000 L14200 12500 L14800 13100 Z M15700 11900 L15000 11400 L14600 12000 Z M15400 10900 L15000 11400 L15700 11900 Z M16400 10600 L15700 10300 L15400 10900 Z M15900 9600 L15700 10300 L16400 10600 Z M16000 9200 L15900 9600 L16700 9900 Z M5000 12900 L4500 12500 L3900 13100 Z M5600 13300 L5000 12900 L4500 13600 Z M5700 14400 L6100 13700 L5600 13300 Z M6400 14700 L6700 14000 L6100 13700 Z M7100 15000 L7400 14200 L6700 14000 Z M8000 14400 L7400 14200 L7100 15000 Z M8600 15300 L8700 14500 L8000 14400 Z M9400 14500 L8700 14500 L8600 15300 Z M8700 800 L9300 0 L8600 0 Z M7900 100 L8700 800 L8600 0 Z M7400 1100 L7900 100 L7100 300 Z M6400 600 L7400 1100 L7100 300 Z M6100 1600 L6400 600 L5700 900 Z M5100 1300 L6100 1600 L5700 900 Z M4500 1700 L5600 2000 L5100 1300 Z M4500 2800 L4500 1700 L3900 2200 Z M4100 3300 L3900 2200 L3400 2800 Z M3000 3400 L4100 3300 L3400 2800 Z M3300 4400 L3000 3400 L2600 4000 Z M2300 4700 L3300 4400 L2600 4000 Z M2800 5700 L2300 4700 L2000 5400 Z M2700 6100 L2000 5400 L1800 6200 Z M13700 2400 L14800 2200 L14200 1700 Z M13100 2000 L14200 1700 L13600 1300 Z M13000 900 L13100 2000 L13600 1300 Z M12300 600 L12600 1600 L13000 900 Z M11600 300 L12000 1300 L12300 600 Z M10700 900 L11600 300 L10800 100 Z M10100 0 L10700 900 L10800 100 Z M9300 800 L10100 0 L9300 0 Z M0 6900 L2300 10600 L4600 6900 Z M8700 800 L9300 800 L9300 0 Z M7900 100 L8000 900 L8700 800 Z M7400 1100 L8000 900 L7900 100 Z M6400 600 L6700 1300 L7400 1100 Z M6100 1600 L6700 1300 L6400 600 Z M5100 1300 L5600 2000 L6100 1600 Z M4500 1700 L5000 2400 L5600 2000 Z M4500 2800 L5000 2400 L4500 1700 Z M4100 3300 L4500 2800 L3900 2200 Z M3000 3400 L3700 3900 L4100 3300 Z M3300 4400 L3700 3900 L3000 3400 Z M2300 4700 L3000 5000 L3300 4400 Z M2800 5700 L3000 5000 L2300 4700 Z M2700 6100 L2800 5700 L2000 5400 Z M13700 2400 L14200 2800 L14800 2200 Z M13100 2000 L13700 2400 L14200 1700 Z M13000 900 L12600 1600 L13100 2000 Z M12300 600 L12000 1300 L12600 1600 Z M11600 300 L11300 1100 L12000 1300 Z M10700 900 L11300 1100 L11600 300 Z M10100 0 L10000 800 L10700 900 Z M9300 800 L10000 800 L10100 0 Z"/>
</svg>
