<svg xmlns="http://www.w3.org/2000/svg" viewBox="0 0 17700 17700" width="17700" height="17700">
  <path fill="#ffb02b" d="M5700 16900 L5600 17200 L5900 17700 Z M0 2900 L200 3200 L1000 3000 Z M500 13300 L0 13600 L900 13600 Z M0 7000 L500 7300 L900 7000 Z M17700 10500 L17200 10200 L16800 10500 Z M16800 8300 L17200 8600 L17700 8300 Z M16300 900 L16500 800 L16700 400 Z M5100 100 L4900 400 L5300 900 Z M17700 1800 L17200 1500 L16800 1800 Z M1400 16900 L1300 17200 L1600 17700 Z M9400 100 L9300 400 L9600 900 Z M900 9300 L500 9000 L0 9300 Z M16800 14700 L16800 16700 L17700 14700 Z M10300 17700 L12700 17700 L10300 16800 Z M5700 17600 L5900 17700 L5600 17200 Z M5900 17700 L8300 17700 L6000 16800 Z M5700 16900 L5900 17700 L6000 16800 Z M8300 17700 L8500 17600 L8600 17200 Z M8600 17200 L8500 16900 L8300 17700 Z M8500 16900 L8300 16800 L8300 17700 Z M8300 16800 L6000 16800 L8300 17700 Z M200 3200 L500 3400 L800 3200 Z M800 3200 L1000 3000 L200 3200 Z M1000 3000 L1000 900 L0 2900 Z M1000 900 L3100 900 L3100 0 Z M3100 900 L3300 800 L3100 0 Z M3100 0 L3300 800 L3300 100 Z M3300 800 L3500 500 L3300 100 Z M3100 0 L800 0 L1000 900 Z M800 0 L600 0 L1000 900 Z M600 0 L400 100 L1000 900 Z M400 100 L200 200 L1000 900 Z M200 200 L100 300 L1000 900 Z M100 300 L100 500 L1000 900 Z M100 500 L0 2900 L1000 900 Z M500 16000 L800 15900 L900 15700 Z M900 15700 L900 13600 L0 15700 Z M900 13600 L800 13400 L500 13300 Z M0 15700 L900 13600 L0 13600 Z M500 13300 L100 13400 L0 13600 Z M0 15700 L100 15900 L500 16000 Z M500 16000 L900 15700 L0 15700 Z M900 7000 L900 4900 L0 7000 Z M900 4900 L800 4700 L500 4600 Z M0 4900 L500 4600 L100 4700 Z M900 4900 L500 4600 L0 4900 Z M0 4900 L0 7000 L900 4900 Z M0 7000 L100 7200 L500 7300 Z M500 7300 L800 7200 L900 7000 Z M16800 10500 L16800 12600 L17700 10500 Z M16800 12600 L16900 12800 L17200 12900 Z M17700 12600 L17200 12900 L17600 12800 Z M16800 12600 L17200 12900 L17700 12600 Z M17700 12600 L17700 10500 L16800 12600 Z M17700 10500 L17600 10300 L17200 10200 Z M17200 10200 L16900 10300 L16800 10500 Z M17700 8300 L17700 6100 L16800 8300 Z M17700 6100 L17600 5900 L17200 5800 Z M16800 6100 L17200 5800 L16900 5900 Z M17700 6100 L17200 5800 L16800 6100 Z M16800 6100 L16800 8300 L17700 6100 Z M16800 8300 L16900 8400 L17200 8600 Z M17200 8600 L17600 8400 L17700 8300 Z M16700 400 L16500 100 L16300 900 Z M16500 100 L16300 0 L16300 900 Z M16300 0 L14000 0 L16300 900 Z M14000 0 L13800 100 L14000 900 Z M16300 900 L14000 0 L14000 900 Z M13800 100 L13600 400 L14000 900 Z M13600 400 L13800 800 L14000 900 Z M5000 800 L5300 900 L4900 400 Z M5300 900 L7600 900 L5300 0 Z M5100 100 L5300 900 L5300 0 Z M7600 900 L7800 800 L7900 400 Z M7900 400 L7800 100 L7600 900 Z M7800 100 L7600 0 L7600 900 Z M7600 0 L5300 0 L7600 900 Z M17700 1800 L17500 1600 L17200 1500 Z M17200 1500 L16900 1600 L16800 1800 Z M16800 1800 L16800 3900 L17700 1800 Z M16800 3900 L16900 4100 L17200 4200 Z M17700 3900 L17200 4200 L17600 4100 Z M16800 3900 L17200 4200 L17700 3900 Z M17700 3900 L17700 1800 L16800 3900 Z M1400 17600 L1600 17700 L1300 17200 Z M1600 17700 L4000 17700 L1600 16800 Z M1400 16900 L1600 17700 L1600 16800 Z M4000 17700 L4200 17600 L4300 17200 Z M4300 17200 L4200 16900 L4000 17700 Z M4200 16900 L3900 16800 L4000 17700 Z M3900 16800 L1600 16800 L4000 17700 Z M9400 800 L9600 900 L9300 400 Z M9600 900 L12000 900 L9600 0 Z M9400 100 L9600 900 L9600 0 Z M12000 900 L12200 800 L12300 400 Z M12300 400 L12200 100 L12000 900 Z M12200 100 L12000 0 L12000 900 Z M12000 0 L9600 0 L12000 900 Z M100 11600 L500 11700 L0 11400 Z M500 11700 L800 11600 L900 11400 Z M900 11400 L900 9300 L0 11400 Z M900 9300 L800 9100 L500 9000 Z M500 9000 L100 9100 L0 9300 Z M0 9300 L0 11400 L900 9300 Z M500 11700 L900 11400 L0 11400 Z M16800 16700 L14700 16700 L14700 17700 Z M14700 16700 L14400 16900 L14700 17700 Z M14700 17700 L14400 16900 L14400 17500 Z M14400 16900 L14300 17200 L14400 17500 Z M14700 17700 L17000 17700 L16800 16700 Z M17000 17700 L17200 17600 L16800 16700 Z M17200 17600 L17400 17600 L16800 16700 Z M17400 17600 L17500 17500 L16800 16700 Z M17500 17500 L17600 17300 L16800 16700 Z M17600 17300 L17700 17200 L16800 16700 Z M17700 17200 L17700 14700 L16800 16700 Z M17700 14700 L17600 14500 L16800 14700 Z M17600 14500 L17300 14300 L16900 14500 Z M16800 14700 L17600 14500 L16900 14500 Z M12900 17600 L13000 17200 L12700 17700 Z M13000 17200 L12900 16900 L12700 17700 Z M12900 16900 L12700 16800 L12700 17700 Z M12700 16800 L10300 16800 L12700 17700 Z M10300 16800 L10100 16900 L10300 17700 Z M10100 16900 L10000 17200 L10300 17700 Z M10000 17200 L10100 17600 L10300 17700 Z"/>
  <path fill="#000000" d="M6400 4400 L9000 10900 L12800 10900 Z M6400 4400 L6400 13400 L9000 10900 Z"/>
</svg>
